<svg version="1.1" id="Layer_1" xmlns="http://www.w3.org/2000/svg" xmlns:xlink="http://www.w3.org/1999/xlink" x="0px" y="0px" viewBox="0 0 136.4 120.5" style="enable-background:new 0 0 136.4 120.5;" xml:space="preserve">
 <style type="text/css">
  .st0{fill:#EF54AC;}
 </style>
 <g>
  <g>
   <path class="st0" d="M136.4,60.3L106,6.5c-2.3-4-6.5-6.5-11.1-6.5H41.5c-4.6,0-8.8,2.5-11.1,6.5l-3.8,6.8h68.3l-7.6,13.3H19
			l-7.6,13.4h68.3l-7.6,13.3H3.8L0,60.3l3.7,6.5H72l7.5,13.3H11.2l7.6,13.3h68.3l7.6,13.3H26.4l4,7.1c2.3,4,6.5,6.5,11.1,6.5h53.5
			c4.6,0,8.8-2.5,11.1-6.5L136.4,60.3z">
   </path>
  </g>
 </g>
</svg>