<svg width="64" height="32" viewBox="0 0 64 32" fill="none" xmlns="http://www.w3.org/2000/svg">
<g clip-path="url(#clip0_15_12021)">
<path d="M13.3974 15.0777C11.3941 15.0777 9.57855 16.6104 9.57855 19.3818C9.57855 22.1532 11.3941 23.6859 13.3974 23.6859C15.4366 23.6859 17.2521 22.1264 17.2521 19.3461C17.2521 16.5659 15.4366 15.0777 13.3974 15.0777Z" fill="#F58538"></path>
<path d="M48.304 17.0381C48.1878 17.7065 48.6528 18.2946 49.3325 18.2857C49.5293 18.2857 49.7171 18.2501 49.887 18.1788C51.8457 16.6015 54.9044 18.259 54.9044 18.259C54.5824 13.5539 48.8496 14.0083 48.304 17.0381Z" fill="#F58538"></path>
<path d="M60.6909 8.65274C59.3672 8.33194 58.2582 7.56558 57.507 6.55862C55.9955 7.88638 53.8759 8.47452 51.7742 7.96658C49.3684 7.37845 47.6244 5.51601 47.0788 3.2704C46.265 3.44862 45.3974 3.44862 44.5299 3.23475C42.7412 2.79811 41.3549 1.55945 40.6752 -0.00891113H0V31.9911H52.6149C58.9022 31.9911 64 26.9117 64 20.6472V8.46561C62.9804 8.84879 61.8357 8.92899 60.6909 8.65274ZM14.9983 28.3375C12.9324 28.3375 11.3315 27.589 10.2761 26.5018C10.0347 26.2523 9.61431 26.4216 9.61431 26.7691V27.7048C9.61431 27.9187 9.44438 28.088 9.22974 28.088H4.6417C4.42705 28.088 4.25713 27.9187 4.25713 27.7048V5.39126C4.25713 5.17739 4.42705 5.00808 4.6417 5.00808H9.22079C9.43544 5.00808 9.60537 5.17739 9.60537 5.39126V12.0212C9.60537 12.3687 10.0257 12.538 10.2672 12.2885C11.3315 11.1746 12.9681 10.4261 14.9894 10.4261C19.3091 10.4261 22.6898 13.8569 22.6898 19.3461C22.6898 24.8354 19.2823 28.3375 14.9983 28.3375ZM29.6121 27.7048C29.6121 27.9187 29.4421 28.088 29.2275 28.088H24.6484C24.4338 28.088 24.2638 27.9187 24.2638 27.7048V11.0677C24.2638 10.8538 24.4338 10.6845 24.6484 10.6845H29.2275C29.4421 10.6845 29.6121 10.8538 29.6121 11.0677V27.7048ZM26.9558 8.87552C25.0419 8.87552 23.763 7.59231 23.763 6.00613C23.763 4.38429 25.0509 3.10109 26.9558 3.10109C28.834 3.10109 30.1219 4.38429 30.1219 6.00613C30.1129 7.59231 28.834 8.87552 26.9558 8.87552ZM41.981 27.7048C41.981 27.9187 41.8111 28.088 41.5964 28.088H39.2622C35.6311 28.088 33.0911 26.5553 33.0911 22.0373V15.4965C33.0911 15.2826 32.9212 15.1133 32.7065 15.1133H31.3561C31.1414 15.1133 30.9715 14.944 30.9715 14.7302V11.0766C30.9715 10.8627 31.1414 10.6934 31.3561 10.6934H32.7065C32.9212 10.6934 33.0911 10.5241 33.0911 10.3102V6.82595C33.0911 6.61209 33.261 6.44277 33.4757 6.44277H38.0548C38.2694 6.44277 38.4394 6.61209 38.4394 6.82595V10.2924C38.4394 10.5063 38.6093 10.6756 38.8239 10.6756H41.5517C41.7664 10.6756 41.9363 10.8449 41.9363 11.0588V14.7123C41.9363 14.9262 41.7664 15.0955 41.5517 15.0955H38.8239C38.6093 15.0955 38.4394 15.2648 38.4394 15.4787V22.0997C38.4394 23.1334 38.8776 23.57 40.0671 23.57H41.5875C41.8021 23.57 41.9721 23.7393 41.9721 23.9532V27.7048H41.981ZM60.1185 20.3085C60.1006 20.5046 59.9307 20.6561 59.7339 20.6561H48.4025C48.161 20.6561 47.9821 20.87 48.0179 21.1016C48.3399 23.071 49.6724 23.9889 51.2823 23.9889C52.6775 23.9889 53.5003 23.3473 53.9653 22.5096C54.0369 22.3849 54.1621 22.3046 54.3052 22.3046H59.251C59.5103 22.3046 59.6982 22.5631 59.6177 22.8126C58.5981 25.9671 55.602 28.3286 51.4612 28.3286C46.3276 28.3286 42.6339 24.8978 42.6339 19.3729C42.6339 13.848 46.265 10.4172 51.4612 10.4172C56.5679 10.4172 60.1632 13.7856 60.1632 19.0877C60.1722 19.4887 60.1543 19.8986 60.1185 20.3085Z" fill="#F58538"></path>
</g>
<defs>
<clipPath id="clip0_15_12021">
<rect width="64" height="32" fill="white"></rect>
</clipPath>
</defs>
</svg>