<svg width="71" height="31" viewBox="0 0 71 31" fill="none" xmlns="http://www.w3.org/2000/svg">
<g clip-path="url(#clip0_3119_348)">
<path d="M35.5262 21.8589H31.4472V20.1473C30.4394 21.3955 28.9364 22.2585 26.8093 22.2585C22.5391 22.2585 19.3086 18.7558 19.3086 14.1019C19.3086 9.44804 22.5391 5.94531 26.8093 5.94531C28.9364 5.94531 30.6016 6.79529 31.4472 8.18393V6.36089H35.5262V21.8589ZM23.5788 14.1019C23.5788 16.4694 25.1296 18.3721 27.5767 18.3721C30.0238 18.3721 31.5746 16.549 31.5746 14.1019C31.5746 11.6548 29.9587 9.83176 27.5767 9.83176C25.1947 9.83176 23.5788 11.7344 23.5788 14.1019Z" fill="#150E2B"/>
<path d="M52.94 11.9946V21.8628H48.7654V13.3384C48.7654 11.0998 47.6461 9.86752 45.7419 9.86752C43.9508 9.86752 42.4637 11.0346 42.4637 13.3702V21.8628H38.2891V6.3648H42.3507V8.18783C43.4541 6.54 45.1497 5.94922 46.909 5.94922C50.4277 5.94922 52.9385 8.39635 52.9385 11.9946H52.94Z" fill="#150E2B"/>
<path d="M11.4045 5.94695C9.70887 5.94695 8.06249 6.4914 6.95766 8.02629V0L0 0L0 3.88789H2.78451L2.78451 21.862H6.95911L6.95911 13.3694C6.95911 11.0338 8.44621 9.8667 10.2374 9.8667C12.1401 9.8667 13.2608 11.0975 13.2608 13.3376V21.862H17.4354V11.9938C17.4354 8.39553 14.9246 5.9484 11.4059 5.9484L11.4045 5.94695Z" fill="#150E2B"/>
<path d="M67.3757 19.2218C69.5911 18.0663 70.5757 16.0072 70.638 13.8222C70.6988 12.2931 70.1529 10.5888 69.0611 9.38405L71 7.04263L67.8405 4.57812L66.1796 6.76316C65.4208 6.32297 63.8903 5.92477 62.8144 5.92477C58.6963 5.92477 54.8359 8.5167 54.8359 13.7599C54.8359 18.5354 58.0505 21.4141 62.8144 21.4141C65.5526 21.4141 66.5677 22.7752 66.5677 24.2739C66.5677 25.9072 65.1124 27.0729 62.897 27.0729C60.8654 27.0729 59.4623 26.1433 59.2234 23.9032H55.0502C55.0502 28.1285 57.7566 30.9608 62.7522 30.9608C67.1469 30.9608 70.7611 28.3963 70.7611 24.1841C70.7611 23.2791 70.7611 20.7509 67.3757 19.2218ZM62.7362 17.5291C60.4556 17.5291 59.0105 15.8103 59.0105 13.6716C59.0105 11.5329 60.4556 9.81411 62.7362 9.81411C65.0169 9.81411 66.462 11.4605 66.462 13.6716C66.462 15.8827 64.956 17.5291 62.7362 17.5291Z" fill="#150E2B"/>
</g>
<defs>
<clipPath id="clip0_3119_348">
<rect width="71" height="30.9583" fill="white"/>
</clipPath>
</defs>
</svg>
