<svg xmlns="http://www.w3.org/2000/svg" width="100%" height="100%" viewBox="0 0 40.15 30.32" fill="none" preserveAspectRatio="xMidYMid meet" aria-hidden="true" role="img">
<g clip-path="url(#clip0_5517_24976)">
<path d="M20.076 3.80722C29.0821 3.81073 36.3831 11.1861 36.3866 20.284C36.3866 21.8871 36.1604 23.135 35.7219 23.9963C35.4157 24.608 34.9215 25.1037 34.3125 25.4025C32.4403 26.3903 29.0926 26.5274 25.7135 26.5274C24.8575 26.5274 23.9735 26.5274 23.0583 26.5099C22.1431 26.4923 21.0956 26.4888 20.076 26.4888C19.0563 26.4888 18.0576 26.4888 17.0902 26.5099C16.1227 26.5309 15.291 26.5274 14.4349 26.5274C11.0733 26.5274 7.70814 26.3903 5.83592 25.4025C5.23388 25.1002 4.74321 24.6045 4.44393 23.9963C4.00545 23.135 3.78273 21.8871 3.78273 20.2805C3.77925 11.1826 11.0802 3.80722 20.0864 3.8037C20.0899 3.8037 20.0899 3.8037 20.0934 3.8037L20.076 3.80722ZM20.0934 9.18446e-06C9.00617 -0.0105371 0.0104399 9.06278 0 20.2629C0 20.27 0 20.277 0 20.284C0 29.505 6.09344 30.3206 14.4349 30.3206C16.2236 30.3206 18.1167 30.2819 20.076 30.2819C22.0352 30.2819 23.9248 30.3206 25.7135 30.3206C34.0655 30.3206 40.1485 29.505 40.1485 20.284C40.1485 9.08388 31.1632 0.00704004 20.076 0.00352461L20.0934 9.18446e-06Z" fill="#D84339"></path>
<path d="M20.0727 13.9446C19.3802 13.9446 18.8164 13.3751 18.8164 12.6755V7.60625C18.8512 6.90668 19.4428 6.36882 20.1353 6.40397C20.7756 6.43913 21.2907 6.9559 21.3255 7.60625V12.6755C21.3255 13.3751 20.7652 13.9411 20.0727 13.9446Z" fill="#D84339"></path>
<path d="M27.8785 13.9458C27.4122 13.9458 26.9842 13.6857 26.7684 13.2673C26.7684 13.2427 25.3764 10.6483 23.2606 9.57261C22.6412 9.25973 22.3941 8.49688 22.7038 7.87114C23.0135 7.24539 23.7687 6.9958 24.3881 7.30867C27.2382 8.75351 28.9121 11.9526 28.9921 12.0897C29.3123 12.7119 29.0756 13.4782 28.4597 13.8017C28.2822 13.8966 28.0804 13.9458 27.8785 13.9458Z" fill="#D84339"></path>
<path d="M12.2533 13.9458C12.0514 13.9458 11.8496 13.8966 11.6721 13.8017C11.0562 13.4782 10.8195 12.7119 11.1397 12.0897C11.2128 11.9526 12.8797 8.75351 15.7437 7.30867C16.3631 6.9958 17.1183 7.24539 17.428 7.87114C17.7377 8.49688 17.4906 9.25973 16.8712 9.57261C14.7832 10.6272 13.3912 13.2392 13.3634 13.2673C13.1476 13.6857 12.7196 13.9458 12.2533 13.9458Z" fill="#D84339"></path>
</g>
<defs>
<clipPath id="clip0_5517_24976">
<rect width="40.15" height="30.32" fill="white"></rect>
</clipPath>
</defs>
</svg>