<svg width="192" height="34" viewBox="0 0 192 34" fill="none" xmlns="http://www.w3.org/2000/svg">
<g clip-path="url(#clip0_8617_34856)">
<path d="M78.5274 5.54297C80.9312 5.54297 82.8512 6.3343 84.2873 7.91697C85.7235 9.49965 86.4415 11.6176 86.4454 14.2709V27.3241H81.0425V14.655C81.0425 13.3826 80.7353 12.3935 80.1209 11.6875C79.4566 10.9582 78.5005 10.5703 77.5213 10.6285C76.4269 10.5703 75.3671 11.0241 74.6451 11.8581C73.9616 12.6766 73.6199 13.8636 73.6199 15.4153V27.3241H68.2055V14.655C68.2055 13.3826 67.8983 12.3935 67.2839 11.6875C66.6196 10.9582 65.6634 10.5703 64.6843 10.6285C63.586 10.5819 62.53 11.0396 61.8081 11.8775C61.0977 12.7115 60.7444 13.8908 60.7406 15.4153V27.3241H55.3301V6.13647H60.7406V8.38247C62.0001 6.48947 63.9431 5.54297 66.5697 5.54297C69.1962 5.54297 71.097 6.55541 72.2759 8.58418C73.6468 6.55541 75.7319 5.54297 78.5274 5.54297Z" fill="#30384C"/>
<path d="M108.94 24.6985C104.593 29.0974 97.5354 29.1052 93.1809 24.7141C88.8263 20.3229 88.8186 13.1932 93.1655 8.79426C97.5123 4.39537 104.57 4.38761 108.925 8.77874C113.279 13.1699 113.287 20.2997 108.94 24.6985ZM96.9824 20.9281C99.2595 23.1314 102.846 23.1314 105.123 20.9281C107.304 18.5618 107.304 14.9 105.123 12.5337C102.846 10.3304 99.2595 10.3304 96.9824 12.5337C94.8589 14.9193 94.8589 18.5424 96.9824 20.9281Z" fill="#30384C"/>
<path d="M139.184 5.54297C141.591 5.54297 143.511 6.3343 144.944 7.91697C146.376 9.49965 147.094 11.6176 147.105 14.2709V27.3241H141.695V14.655C141.695 13.3826 141.384 12.3935 140.77 11.6875C140.105 10.9582 139.149 10.5703 138.17 10.6285C137.075 10.5703 136.016 11.0241 135.298 11.8581C134.61 12.6766 134.265 13.8636 134.268 15.4153V27.3241H128.866V14.655C128.866 13.3826 128.558 12.3935 127.944 11.6875C127.276 10.9582 126.32 10.5703 125.341 10.6285C124.246 10.5819 123.186 11.0396 122.468 11.8775C121.754 12.7115 121.397 13.8908 121.397 15.4153V27.3241H115.986V6.13647H121.397V8.38247C122.656 6.48947 124.599 5.54297 127.23 5.54297C129.86 5.54297 131.761 6.55541 132.936 8.58418C134.303 6.55541 136.384 5.54297 139.184 5.54297Z" fill="#30384C"/>
<path d="M169.596 24.698C165.249 29.0969 158.195 29.1047 153.837 24.7136C149.478 20.3224 149.474 13.1965 153.821 8.79376C158.168 4.39099 165.222 4.38711 169.58 8.77824C173.939 13.1733 173.943 20.2991 169.596 24.698ZM157.642 20.9276C159.915 23.1309 163.506 23.1309 165.779 20.9276C167.96 18.5613 167.96 14.8995 165.779 12.5332C163.506 10.3299 159.915 10.3299 157.642 12.5332C155.519 14.9188 155.519 18.5419 157.642 20.9276Z" fill="#30384C"/>
<path d="M181.178 12.1542C181.178 13.058 182.449 13.8339 184.995 14.4817C185.821 14.6601 186.631 14.8928 187.426 15.1799C188.201 15.4825 188.942 15.8704 189.63 16.3436C190.367 16.8363 190.97 17.5151 191.369 18.3142C191.803 19.1948 192.018 20.1684 191.999 21.1537C191.999 23.3299 191.189 25.0095 189.564 26.1965C187.94 27.3835 185.936 27.9576 183.551 27.9188C179.246 27.9188 176.313 26.2392 174.742 22.876L179.458 20.2227C180.099 22.0575 181.466 22.973 183.566 22.9769C185.498 22.9769 186.466 22.3679 186.462 21.1537C186.462 20.2499 185.191 19.4741 182.645 18.8262C181.693 18.5741 180.882 18.3181 180.21 18.0504C179.45 17.7479 178.717 17.3716 178.029 16.9255C177.277 16.4639 176.658 15.8083 176.247 15.0209C175.825 14.1752 175.614 13.2326 175.637 12.2861C175.637 10.1953 176.393 8.5544 177.902 7.37128C179.542 6.12221 181.558 5.47828 183.609 5.5481C185.233 5.52871 186.838 5.92826 188.267 6.71183C189.657 7.48765 190.805 8.63974 191.58 10.0401L186.972 12.5809C186.42 11.2155 185.076 10.3504 183.616 10.4202C183.002 10.397 182.391 10.5677 181.877 10.909C181.447 11.1728 181.182 11.646 181.178 12.1542Z" fill="#30384C"/>
<path d="M22.1528 4.20107C32.0906 4.20495 40.1469 12.3433 40.1508 22.3824C40.1508 24.1512 39.9012 25.5283 39.4173 26.4787C39.0794 27.1537 38.5341 27.7006 37.8621 28.0303C35.7962 29.1204 32.1022 29.2716 28.3736 29.2716C27.4289 29.2716 26.4536 29.2717 25.4437 29.2523C24.4337 29.2329 23.2779 29.229 22.1528 29.229C21.0277 29.229 19.9256 29.229 18.8581 29.2523C17.7906 29.2755 16.8728 29.2716 15.9282 29.2716C12.2188 29.2716 8.50554 29.1204 6.43963 28.0303C5.77532 27.6967 5.23388 27.1498 4.90365 26.4787C4.41981 25.5283 4.17405 24.1512 4.17405 22.3785C4.17021 12.3394 12.2265 4.20107 22.1643 4.19719C22.1682 4.19719 22.1682 4.19719 22.172 4.19719L22.1528 4.20107ZM22.172 1.01346e-05C9.93785 -0.0116271 0.0115199 10.0003 0 22.3591C0 22.3669 0 22.3746 0 22.3824C0 32.5572 6.72379 33.4572 15.9282 33.4572C17.902 33.4572 19.9909 33.4145 22.1528 33.4145C24.3147 33.4145 26.3998 33.4572 28.3736 33.4572C37.5895 33.4572 44.3018 32.5572 44.3018 22.3824C44.3018 10.0236 34.387 0.00776832 22.1528 0.00388923L22.172 1.01346e-05Z" fill="#D84339"/>
<path d="M22.1489 15.3889C21.3848 15.3889 20.7627 14.7605 20.7627 13.9885V8.39485C20.8011 7.62292 21.4539 7.02941 22.218 7.0682C22.9246 7.107 23.4929 7.67722 23.5313 8.39485V13.9885C23.5313 14.7605 22.9131 15.385 22.1489 15.3889Z" fill="#D84339"/>
<path d="M30.7616 15.3885C30.2471 15.3885 29.7748 15.1015 29.5367 14.6399C29.5367 14.6127 28.0007 11.7499 25.666 10.5629C24.9825 10.2177 24.7098 9.37594 25.0516 8.68546C25.3933 7.99498 26.2266 7.71957 26.9101 8.06481C30.0551 9.65911 31.9021 13.1891 31.9904 13.3404C32.3437 14.027 32.0826 14.8726 31.4029 15.2295C31.2071 15.3342 30.9843 15.3885 30.7616 15.3885Z" fill="#D84339"/>
<path d="M13.5209 15.3885C13.2982 15.3885 13.0755 15.3342 12.8796 15.2295C12.2 14.8726 11.9388 14.027 12.2921 13.3404C12.3728 13.1891 14.2121 9.65911 17.3724 8.06481C18.0559 7.71957 18.8892 7.99498 19.231 8.68546C19.5727 9.37594 19.3001 10.2177 18.6166 10.5629C16.3126 11.7267 14.7766 14.6088 14.7459 14.6399C14.5078 15.1015 14.0355 15.3885 13.5209 15.3885Z" fill="#D84339"/>
</g>
<defs>
<clipPath id="clip0_8617_34856">
<rect width="192" height="34" fill="white"/>
</clipPath>
</defs>
</svg>
