<svg width="91" height="14" viewBox="0 0 91 14" fill="none" xmlns="http://www.w3.org/2000/svg">
<path d="M6.954 11.4415C4.54684 11.4415 2.80836 9.55706 2.80836 6.99954C2.80836 4.44202 4.54684 2.55755 6.954 2.55755C8.95997 2.55755 10.5112 3.84976 10.9659 5.78801H13.8278C13.2928 2.36909 10.5648 0 6.954 0C2.94206 0 0 2.96136 0 6.99954C0 11.0377 2.94206 13.9989 6.954 13.9989C10.5648 13.9989 13.2928 11.63 13.8278 8.21097H10.9659C10.5112 10.1223 8.95997 11.4415 6.954 11.4415Z" fill="black"/>
<path d="M17.6008 13.7307L18.6974 11.0385H25.7584L26.855 13.7307H29.7436L24.2606 0.270054H20.2487L14.7658 13.7307H17.6008ZM19.6871 8.61566L22.0942 2.69301H22.3616L24.7688 8.61566H19.6871Z" fill="black"/>
<path d="M37.8944 11.4425C35.7281 11.4425 34.15 9.69269 34.15 7.26973V0.270221H31.4752V7.26973C31.4752 11.1463 34.2035 14 37.8944 14C41.5854 14 44.3135 11.1463 44.3135 7.26973V0.270221H41.6388V7.26973C41.6388 9.69269 40.0609 11.4425 37.8944 11.4425Z" fill="black"/>
<path d="M53.8083 11.5761C51.5616 11.5761 50.0638 10.8223 50.0638 9.69163H47.3892C47.3892 12.276 49.9569 13.9989 53.8083 13.9989C57.9806 13.9989 60.2273 12.4645 60.2273 9.61084C60.2273 6.86487 58.3552 5.65345 53.942 5.65345C51.4012 5.65345 50.3313 5.24964 50.3313 4.22667C50.3313 3.04214 51.5349 2.42288 53.8083 2.42288C55.8944 2.42288 57.2853 3.17671 57.2853 4.30735H59.9599C59.9599 1.72294 57.4992 0 53.8083 0C49.7964 0 47.6567 1.4807 47.6567 4.22667C47.6567 6.94565 49.4754 8.0764 53.7013 8.0764C56.3759 8.0764 57.5528 8.53399 57.5528 9.61084C57.5528 10.8762 56.2422 11.5761 53.8083 11.5761Z" fill="black"/>
<path d="M64.8025 13.7309L65.9 11.0387H72.9603L74.0567 13.7309H76.9461L71.4622 0.270221H67.4514L61.9679 13.7309H64.8025ZM66.8896 8.61583L69.2968 2.69317H69.5635L71.9707 8.61583H66.8896Z" fill="black"/>
<path d="M79.4894 13.7309H90.1883V11.3079H82.1644V0.270221H79.4894V13.7309Z" fill="black"/>
</svg>
