<svg width="121" height="28" viewBox="0 0 121 28" fill="none" xmlns="http://www.w3.org/2000/svg">
<path d="M46.6638 18.4344L44.3935 20.6744V24.8215H39.6714V2.36084H44.3935V15.0744L51.2952 8.53603H56.9255L50.145 15.4377L57.5309 24.8215H51.8098L46.6638 18.4344Z" fill="black"/>
<path d="M75.7513 8.53613V24.8216H71.2713V22.8843C70.0306 24.307 68.2141 25.0638 66.2161 25.0638C62.1299 25.0638 59.254 22.7632 59.254 17.7384V8.53613H63.9761V17.0422C63.9761 19.7665 65.1871 20.9773 67.2761 20.9773C69.4554 20.9773 71.0292 19.5849 71.0292 16.5881V8.53613H75.7513Z" fill="black"/>
<path d="M97.8832 16.6788C97.8832 21.7944 94.3417 25.0636 89.7707 25.0636C87.5914 25.0636 85.8355 24.3674 84.6554 22.9447V24.8215H80.1451V2.36084H84.8672V10.2614C86.0782 8.92949 87.743 8.29383 89.7707 8.29383C94.3417 8.29383 97.8832 11.563 97.8832 16.6788ZM93.1004 16.6788C93.1004 13.8636 91.3148 12.1685 88.9535 12.1685C86.5927 12.1685 84.8065 13.8636 84.8065 16.6788C84.8065 19.4939 86.5927 21.1891 88.9535 21.1891C91.3148 21.1891 93.1004 19.4939 93.1004 16.6788Z" fill="black"/>
<path d="M100.452 3.63255C100.452 2.1493 101.633 0.999023 103.389 0.999023C105.144 0.999023 106.325 2.08876 106.325 3.54174C106.325 5.1158 105.144 6.26606 103.389 6.26606C101.633 6.26606 100.452 5.1158 100.452 3.63255ZM101.027 8.53634H105.75V24.8219H101.027V8.53634Z" fill="black"/>
<path d="M120.646 24.0347C119.677 24.7309 118.254 25.0639 116.801 25.0639C112.957 25.0639 110.717 23.0963 110.717 19.2217V12.5319H108.204V8.89952H110.717V4.93408H115.439V8.89952H119.495V12.5319H115.439V19.1612C115.439 20.5536 116.196 21.3104 117.467 21.3104C118.164 21.3104 118.859 21.0985 119.374 20.705L120.646 24.0347Z" fill="black"/>
<path d="M8.32434 0H0V8.32435H8.32434V0Z" fill="#0076EA"/>
<path d="M18.1637 0H9.83936V8.32435H18.1637V0Z" fill="#0076EA"/>
<path d="M8.32434 9.83838H0V18.1628H8.32434V9.83838Z" fill="#0076EA"/>
<path d="M18.1637 9.83838H9.83936V18.1628H18.1637V9.83838Z" fill="#0076EA"/>
<path d="M27.9982 9.83838H19.6738V18.1628H27.9982V9.83838Z" fill="#0076EA"/>
<path d="M18.1637 19.6758H9.83936V28.0002H18.1637V19.6758Z" fill="#0076EA"/>
<path d="M27.9982 19.6758H19.6738V28.0002H27.9982V19.6758Z" fill="#0076EA"/>
</svg>
