<svg version="1.1" id="Layer_1" xmlns:x="ns_extend;" xmlns:i="ns_ai;" xmlns:graph="ns_graphs;" xmlns="http://www.w3.org/2000/svg" xmlns:xlink="http://www.w3.org/1999/xlink" x="0px" y="0px" viewBox="0 0 342.5 56" style="enable-background:new 0 0 342.5 56;" xml:space="preserve">
 <style type="text/css">
  .st0{fill:#105ED5;}
	.st1{fill:#2E2E2E;}
 </style>
 <metadata>
  <sfw xmlns="ns_sfw;">
   <slices>
   </slices>
   <sliceSourceBounds bottomLeftOrigin="true" height="56" width="342.5" x="-68.4" y="-211.8">
   </sliceSourceBounds>
  </sfw>
 </metadata>
 <g>
  <path class="st0" d="M0.7,2.7C0.7,1.2,1.9,0,3.3,0h51.7c0.9,0,1.6,0.7,1.6,1.6v51.7c0,1.5-1.2,2.7-2.7,2.7
		C24.5,56,0.7,32.1,0.7,2.7z">
  </path>
  <g>
   <path class="st1" d="M76.4,25.4c-0.4,0-0.3-0.5-0.1-0.9c0.4-1.2,0.5-2,0.5-3V20c0-0.2-0.2-0.4-0.4-0.4h-3.4
			c-0.2,0-0.4,0.2-0.4,0.4v24.5c0,0.2,0.2,0.4,0.4,0.4h3.4c0.2,0,0.4-0.2,0.4-0.4V32c0-6.5,2.2-9.2,9.6-8.8c0.2,0,0.4-0.2,0.4-0.4
			v-3.2c0-0.2-0.2-0.4-0.4-0.4C80.1,19.3,78.7,21,77,25C76.9,25.2,76.7,25.5,76.4,25.4z">
   </path>
   <path class="st1" d="M100.4,45.2c4.9,0,8.5-3.4,9.4-5.9c0.1-0.1,0.3-0.4,0.6-0.3c0.4,0.1,0.2,0.6,0,1c-0.4,1-0.5,1.8-0.5,2.7v1.7
			c0,0.2,0.2,0.4,0.4,0.4h3.4c0.2,0,0.4-0.2,0.4-0.4V19.9c0-0.2-0.2-0.4-0.4-0.4h-3.4c-0.2,0-0.4,0.2-0.4,0.4v12.2
			c0,6-4.5,9.7-8.6,9.7c-3.8,0-6.6-1.6-6.6-7.5V19.9c0-0.2-0.2-0.4-0.4-0.4h-3.4c-0.2,0-0.4,0.2-0.4,0.4v14.6
			C90.3,41.9,94.1,45.2,100.4,45.2z">
   </path>
   <path class="st1" d="M139.3,10.8c-0.2,0-0.4,0.2-0.4,0.4v9.9c0,0.9,0.1,1.8,0.5,2.8c0.2,0.5,0.5,0.9,0,1.1
			c-0.3,0.1-0.5-0.4-0.6-0.5c-1.2-3.5-4.8-5.7-9.1-5.7c-7.1,0-12,5.6-12,13.2c0,7.6,4.9,13.2,12,13.2c4.2,0,7.8-2.2,9.1-5.8
			c0.1-0.2,0.3-0.6,0.6-0.4c0.3,0.2,0.2,0.6,0,1c-0.4,1.1-0.5,1.8-0.5,2.7v1.8c0,0.2,0.2,0.4,0.4,0.4h3.4c0.2,0,0.4-0.2,0.4-0.4
			V11.2c0-0.2-0.2-0.4-0.4-0.4L139.3,10.8z M130.3,41.6c-5.5,0-8.4-4.4-8.4-9.6s2.9-9.6,8.4-9.6c5,0,8.6,4.4,8.6,9.6
			S135.3,41.6,130.3,41.6z">
   </path>
   <path class="st1" d="M167.9,10.8c-0.2,0-0.4,0.2-0.4,0.4v9.9c0,0.9,0.1,1.8,0.5,2.8c0.2,0.5,0.5,0.9,0,1.1
			c-0.3,0.1-0.5-0.4-0.6-0.5c-1.2-3.5-4.7-5.7-8.9-5.7c-6.9,0-11.7,5.6-11.7,13.2c0,7.6,4.8,13.2,11.7,13.2c4.1,0,7.7-2.2,8.9-5.8
			c0.1-0.2,0.3-0.6,0.6-0.4c0.3,0.2,0.2,0.6,0,1c-0.4,1.1-0.5,1.8-0.5,2.7v1.8c0,0.2,0.2,0.4,0.4,0.4h3.3c0.2,0,0.4-0.2,0.4-0.4
			V11.2c0-0.2-0.2-0.4-0.4-0.4L167.9,10.8z M159.1,41.6c-5.4,0-8.2-4.4-8.2-9.6s2.8-9.6,8.2-9.6c4.9,0,8.4,4.4,8.4,9.6
			S164,41.6,159.1,41.6z">
   </path>
   <path class="st1" d="M200.7,31.5c0-8.7-6.2-12.3-12.2-12.3c-7.7,0-13,5.3-13,13c0,6.9,4.6,13,13.1,13c6.6,0,10.3-4.1,11.5-8.2
			c0.1-0.2-0.1-0.5-0.4-0.5H196c-0.2,0-0.3,0.1-0.4,0.3c-1,2.7-3,4.9-6.8,4.9c-5.4,0-8.6-3.8-9-8.1c0-0.2,0.2-0.4,0.4-0.4h20.1
			c0.2,0,0.4-0.2,0.4-0.4C200.7,32.4,200.7,32,200.7,31.5z M188.9,22.5c4.2,0,7,2.7,7.5,7.1c0,0.2-0.2,0.4-0.4,0.4h-15.5
			c-0.2,0-0.4-0.2-0.4-0.5C180.8,25.6,183.2,22.5,188.9,22.5z">
   </path>
   <path class="st1" d="M219.9,19.7c0.1-0.3-0.1-0.5-0.4-0.5c-1.4,0-2.6,0.1-3.6,0.3c-1.3,0.2-2.2,0.5-3,1c-1.6,0.9-2.5,2.4-3.4,4.5
			c0,0,0,0,0,0c-0.1,0.2-0.2,0.4-0.5,0.4c-0.4,0-0.3-0.5-0.1-0.9c0.4-1.2,0.6-2,0.6-3V20c0-0.2-0.2-0.4-0.4-0.4h-3.6
			c-0.2,0-0.4,0.2-0.4,0.4v24.5c0,0.2,0.2,0.4,0.4,0.4h3.6c0.2,0,0.4-0.2,0.4-0.4V32c0-3.7,0.7-6.1,2.8-7.5c1-0.6,2.2-1,3.8-1.2
			c0.9-0.1,1.8-0.1,2.9-0.1c0.2,0,0.4-0.1,0.4-0.3L219.9,19.7z">
   </path>
   <path class="st1" d="M222.1,36.1c-0.2,0-0.4,0.2-0.4,0.4c0.4,5.3,4.5,8.6,11.1,8.6c6.8,0,11.2-3.1,11.2-8.2c0-4-3.9-5.9-10.2-6.7
			c-6.8-0.8-7.3-2.4-7.3-3.8c0-1.7,1.6-3.9,6.2-3.9c4.6,0,6.1,2.3,6.3,4.6c0,0.2,0.2,0.4,0.4,0.4h3.3c0.2,0,0.4-0.2,0.4-0.4
			c-0.5-4.5-4-7.8-10.3-7.8c-6.8,0-10.5,4-10.5,7.8c0,3.3,3,6,8.6,6.6c7,0.8,8.8,1.7,8.8,4.1c0,1.6-1.6,4.1-6.9,4.1
			c-5.1,0-7.1-2.7-7.3-5.3c0-0.2-0.2-0.4-0.4-0.4L222.1,36.1z">
   </path>
   <path class="st1" d="M260.7,19.1c0.2,0,0.4,0.2,0.4,0.4v2.6c0,0.2-0.2,0.4-0.4,0.4h-5.1c-0.2,0-0.4,0.2-0.4,0.4v14.7
			c0,2.9,0.6,3.8,3.6,3.8c0.8,0,1.6-0.1,2.2-0.3c0.2-0.1,0.5,0.1,0.5,0.3l0.4,2.2c0,0.2-0.1,0.4-0.2,0.4c-0.6,0.2-1.6,0.6-2.9,0.7
			c-5.5,0.4-7.8-1.6-7.8-7.6V23c0-0.2-0.2-0.4-0.4-0.4h-4.2c-0.2,0-0.4-0.2-0.4-0.4v-2.6c0-0.2,0.2-0.4,0.4-0.4h4.2
			c0.2,0,0.4-0.2,0.4-0.4V12c0-0.2,0.1-0.4,0.3-0.4l3.4-0.7c0.3-0.1,0.5,0.1,0.5,0.4v7.4c0,0.2,0.2,0.4,0.4,0.4L260.7,19.1z">
   </path>
   <path class="st1" d="M264,37.8c0,4.3,4.1,7.4,9,7.4c5,0,9.2-2.5,10.6-6.5c0.1-0.2,0.2-0.5,0.5-0.4c0.4,0.1,0.3,0.5,0.1,0.9
			c-0.4,1-0.5,1.8-0.5,2.8v2.4c0,0.2,0.2,0.4,0.4,0.4h3.5c0.2,0,0.4-0.2,0.4-0.4v-14c0-9.3-5.1-11.2-11.3-11.2
			c-5.7,0-10.7,2.2-11.8,7.4c-0.1,0.2,0.1,0.5,0.4,0.5h3.4c0.2,0,0.4-0.1,0.4-0.3c0.5-2.2,2.6-4.2,7.2-4.2c6.3,0,7.4,2.8,7.4,4.7
			c0.1,2.8-5,2.4-10.1,2.8C268.8,30.5,264,32.2,264,37.8L264,37.8z M282.9,31.3c0.3-0.2,0.8,0,0.8,0.4c-0.4,6.3-4,9.7-8.9,10.1
			c-4.5,0.4-6.5-1.9-6.5-4.3c0-2.6,2.1-3.7,5.5-4.2C277.3,32.7,280.9,32.5,282.9,31.3L282.9,31.3z">
   </path>
   <path class="st1" d="M291.6,32.2c0,7.1,4.9,13,13,13c7,0,11.2-4.4,11.8-9c0-0.2-0.2-0.4-0.4-0.4h-3.4c-0.2,0-0.4,0.1-0.4,0.3
			c-0.6,3.2-3.2,5.6-7.5,5.6c-6.1,0-8.9-4.3-8.9-9.5c0-5.1,2.7-9.5,8.9-9.5c4.3,0,6.9,2.3,7.5,5.6c0,0.2,0.2,0.3,0.4,0.3h3.4
			c0.2,0,0.4-0.2,0.4-0.4c-0.6-4.7-4.8-9-11.8-9C296.4,19.2,291.6,25.1,291.6,32.2z">
   </path>
   <path class="st1" d="M342.8,44.9c0.3,0,0.5-0.4,0.3-0.7l-11.9-14.1c-0.1-0.2-0.1-0.4,0-0.6l10.8-9.8c0.3-0.2,0.1-0.7-0.3-0.7h-4.4
			c-0.1,0-0.2,0-0.3,0.1l-12.4,11.9c-0.2,0.2-0.4,0.5-0.7,0.3c-0.3-0.2-0.1-0.5,0.1-0.8c0.8-1,1-1.9,1-3.2V11.2
			c0-0.2-0.2-0.4-0.4-0.4h-3.4c-0.2,0-0.4,0.2-0.4,0.4v33.3c0,0.2,0.2,0.4,0.4,0.4h3.4c0.2,0,0.4-0.2,0.4-0.4v-9.3
			c0-0.1,0-0.2,0.1-0.3l2.5-2.3c0.2-0.2,0.4-0.1,0.6,0l9.9,12.1c0.1,0.1,0.2,0.1,0.3,0.1H342.8z">
   </path>
  </g>
 </g>
</svg>